<?xml version="1.0" standalone="no"?>
<!DOCTYPE svg PUBLIC "-//W3C//DTD SVG 20010904//EN"
 "http://www.w3.org/TR/2001/REC-SVG-20010904/DTD/svg10.dtd">
<svg version="1.0" xmlns="http://www.w3.org/2000/svg"
 width="768.000000pt" height="768.000000pt" viewBox="0 0 768.000000 768.000000"
 preserveAspectRatio="xMidYMid meet">

<g transform="translate(0.000000,768.000000) scale(0.100000,-0.100000)"
fill="#000000" stroke="none">
<path d="M3585 6214 c-107 -9 -326 -47 -450 -79 -410 -105 -814 -314 -1185
-613 -119 -97 -399 -374 -516 -512 -220 -259 -407 -539 -547 -820 -117 -232
-131 -277 -124 -381 3 -44 4 -79 4 -80 -1 0 -173 -24 -382 -52 l-380 -52 0
-1235 c0 -1145 1 -1242 18 -1328 73 -380 295 -697 619 -884 178 -104 343 -153
567 -169 97 -7 1010 -9 2741 -6 2870 4 2639 -2 2849 67 376 123 683 428 809
807 70 209 66 77 69 2021 3 1453 1 1752 -10 1752 -7 0 -247 -31 -532 -70 -286
-38 -529 -70 -541 -70 -15 0 -37 25 -81 93 -247 376 -603 756 -946 1011 -418
311 -827 490 -1302 572 -126 21 -188 26 -390 29 -132 1 -262 1 -290 -1z m430
-855 c577 -71 1078 -484 1259 -1041 55 -167 71 -278 71 -478 0 -129 -5 -202
-19 -275 -136 -730 -766 -1255 -1506 -1255 -657 0 -1243 420 -1450 1038 -62
184 -74 267 -74 492 0 173 4 220 22 303 85 387 285 699 597 932 190 143 464
254 697 283 105 13 298 14 403 1z"/>
<path d="M3746 4851 c-3 -4 5 -36 18 -69 78 -198 73 -383 -13 -557 -143 -288
-454 -438 -756 -366 -44 11 -102 29 -128 40 -27 12 -53 21 -59 21 -19 0 -1
-225 26 -333 125 -492 589 -814 1094 -758 137 16 295 67 410 135 118 69 287
238 355 354 54 91 100 208 124 316 22 95 21 304 -2 410 -93 438 -434 752 -875
806 -103 12 -187 13 -194 1z"/>
</g>
</svg>
